HIERARCHY
ROOT ui
{
	 OFFSET 0 0 0
	 CHANNELS 3 XPosition YPosition Z Position
	 EndSite
	 {
	 OFFSET 0 -1 0
	 }
}
ROOT li
{
	 OFFSET 0 0 0
	 CHANNELS 3 XPosition YPosition Z Position
	 EndSite
	 {
	 OFFSET 0 -1 0
	 }
}
ROOT ul
{
	 OFFSET 0 0 0
	 CHANNELS 3 XPosition YPosition Z Position
	 EndSite
	 {
	 OFFSET 0 -1 0
	 }
}
ROOT ll
{
	 OFFSET 0 0 0
	 CHANNELS 3 XPosition YPosition Z Position
	 EndSite
	 {
	 OFFSET 0 -1 0
	 }
}
ROOT tt
{
	 OFFSET 0 0 0
	 CHANNELS 3 XPosition YPosition Z Position
	 EndSite
	 {
	 OFFSET 0 -1 0
	 }
}
ROOT tb
{
	 OFFSET 0 0 0
	 CHANNELS 3 XPosition YPosition Z Position
	 EndSite
	 {
	 OFFSET 0 -1 0
	 }
}
ROOT td
{
	 OFFSET 0 0 0
	 CHANNELS 3 XPosition YPosition Z Position
	 EndSite
	 {
	 OFFSET 0 -1 0
	 }
}
ROOT v
{
	 OFFSET 0 0 0
	 CHANNELS 3 XPosition YPosition Z Position
	 EndSite
	 {
	 OFFSET 0 -1 0
	 }
}
ROOT bn
{
	 OFFSET 0 0 0
	 CHANNELS 3 XPosition YPosition Z Position
	 EndSite
	 {
	 OFFSET 0 -1 0
	 }
}
MOTION
Frames: 21
Frame Time: 0.002
-0.01325579833984375	-0.0014567810297012329	0		0.4820955810546875	-2.394608154296875	0		-0.9535040283203124	0.337281005859375	0		-0.42579046630859374	-3.107171630859375	0		1.73452197265625	-0.7658446655273438	0		3.198788818359375	0.2341566925048828	0		4.2125224609375	0.4134810791015625	0		6.000263671875	0.40214166259765627	0		-0.17450340270996093	5.932068359375	0		
-0.006427134990692139	0.005742156982421875	0		0.42994754028320314	-2.384923583984375	0		-0.9487006225585938	0.3414945678710937	0		-0.41794729614257814	-3.09898193359375	0		1.7403521728515625	-0.7586339721679688	0		3.2166494140625	0.24527166748046875	0		4.23130029296875	0.41458984375	0		6.0090341796875	0.402336669921875	0		-0.15965425109863282	5.943201171875	0		
-0.006656627178192139	0.005999743938446045	0		0.47372897338867187	-2.384026611328125	0		-0.8769660034179687	0.33715924072265624	0		-0.39999124145507814	-3.07687353515625	0		1.7322557373046874	-0.7423081665039063	0		3.1973544921875	0.2376912536621094	0		4.22612744140625	0.4218953247070312	0		6.0088037109375	0.4026048278808594	0		-0.15990238952636718	5.94245849609375	0		
-0.013941740989685059	-6.886209845542908E-4	0		0.47552133178710937	-2.381788330078125	0		-0.8771943969726562	0.3374117431640625	0		-0.3951732177734375	-3.07166162109375	0		1.7231607666015625	-0.72597802734375	0		3.202068603515625	0.23090951538085938	0		4.2348408203125	0.41508209228515625	0		6.00844384765625	0.3868689880371094	0		-0.1601316375732422	5.94371240234375	0		
0.01680248832702637	-0.004698121070861817	0		0.473286865234375	-2.383526123046875	0		-0.8774168090820312	0.3376552734375	0		-0.4342329406738281	-3.05209765625	0		1.728997314453125	-0.7187799072265625	0		3.166954345703125	0.24444642639160155	0		4.2207333984375	0.4294478759765625	0		6.0034267578125	0.4121636657714844	0		-0.1754527587890625	5.93308056640625	0		
-0.0104072265625	-0.004245952129364013	0		0.42619671630859374	-2.36890966796875	0		-0.9546254272460938	0.3385163879394531	0		-0.4233321533203125	-3.038958740234375	0		1.7319273681640626	-0.7015717163085937	0		3.186619384765625	0.22951853942871095	0		4.2204072265625	0.415685546875	0		6.008001953125	0.3863639831542969	0		-0.15959991455078126	5.94217919921875	0		
0.02445462417602539	0.002677886962890625	0		0.4850046691894531	-2.369181640625	0		-0.8687576904296875	0.3460198974609375	0		-0.4114228820800781	-3.026846923828125	0		1.729923095703125	-0.678341552734375	0		3.20451416015625	0.24058766174316407	0		4.220326171875	0.42990386962890625	0		6.01201171875	0.411552734375	0		-0.15881356811523437	5.9413818359375	0		
-0.0027190890312194823	0.00308734393119812	0		0.47388467407226564	-2.362902587890625	0		-0.8839571533203125	0.3433291015625	0		-0.38350177001953123	-3.01589013671875	0		1.71581591796875	-0.670035400390625	0		3.18329052734375	0.234954833984375	0		4.26221484375	0.43775537109375	0		6.00777099609375	0.40378646850585936	0		-0.15999253845214845	5.94257763671875	0		
0.01606965446472168	-0.0039081740379333495	0		0.4627785949707031	-2.3576513671875	0		-0.8891438598632813	0.3395281982421875	0		-0.45746469116210936	-2.993124755859375	0		1.715779296875	-0.65587158203125	0		3.162178466796875	0.24029475402832032	0		4.20999609375	0.4303521728515625	0		6.00761669921875	0.403961181640625	0		-0.17524990844726562	5.93186083984375	0		
-0.011061531066894531	-0.003558845043182373	0		0.44562899780273435	-2.3603828125	0		-0.88927685546875	0.33965362548828126	0		-0.42648294067382814	-2.980252685546875	0		1.707772216796875	-0.6406738891601562	0		3.184987548828125	0.23324305725097655	0		4.2098623046875	0.4304911499023438	0		6.0025576171875	0.4131463928222656	0		-0.1753984375	5.93198828125	0		
0.015824946403503418	-0.0036884880065917967	0		0.449564697265625	-2.355322509765625	0		-0.9613553466796875	0.34433251953125	0		-0.5313367309570313	-2.949302734375	0		1.6688924560546874	-0.612258056640625	0		3.175972900390625	0.24541819763183595	0		4.2148056640625	0.4375543212890625	0		6.00736962890625	0.40421640014648436	0		-0.17552984619140624	5.9320791015625	0		
-0.0032126829624176023	0.0035191879272460937	0		0.463624755859375	-2.337384033203125	0		-0.884454833984375	0.3437503356933594	0		-0.4253185119628906	-2.937121337890625	0		1.677888916015625	-0.6012738037109375	0		3.17875341796875	0.23045803833007814	0		4.2197158203125	0.438580322265625	0		6.011337890625	0.4122577514648437	0		-0.15956597900390626	5.94199951171875	0		
-0.0063927102088928225	-0.008445921897888184	0		0.4704710388183594	-2.347428955078125	0		-0.8945379028320313	0.3438382568359375	0		-0.4992048645019531	-2.914508056640625	0		1.6669083251953125	-0.5891668090820312	0		3.17571142578125	0.23550631713867187	0		4.214623046875	0.43764886474609377	0		6.01026220703125	0.41330221557617186	0		-0.1747634735107422	5.9311318359375	0		
-0.011422820091247558	-0.0034397430419921874	0		0.4614779052734375	-2.3393876953125	0		-0.8946109008789063	0.3437990417480469	0		-0.4321730041503906	-2.90409375	0		1.6619957275390624	-0.57015234375	0		3.185630615234375	0.23440667724609374	0		4.1956640625	0.45179046630859376	0		6.01018896484375	0.41329925537109374	0		-0.1408260955810547	5.93581787109375	0		
-0.015452226638793946	5.123770236968994E-4	0		0.4354637756347656	-2.335252685546875	0		-0.8897081909179687	0.33967233276367187	0		-0.5369765625	-2.8743193359375	0		1.667994140625	-0.5632716674804688	0		3.155510498046875	0.22759165954589844	0		4.21959716796875	0.4515386962890625	0		6.02405029296875	0.40414208984375	0		-0.17595684814453125	5.93202294921875	0		
-0.006578405857086181	-0.008687664985656738	0		0.4832959899902344	-2.351767822265625	0		-0.8897630004882813	0.3395391845703125	0		-0.52490234375	-2.86154833984375	0		1.6291759033203126	-0.5350686645507813	0		3.1623828125	0.21843087768554686	0		4.209369140625	0.4305234375	0		6.0151259765625	0.42013192749023437	0		-0.1740684814453125	5.92987890625	0		
0.0044722027778625485	0.002049448013305664	0		0.44550625610351563	-2.32362744140625	0		-0.8897393798828125	0.3473589172363281	0		-0.5197138061523437	-2.83676708984375	0		1.656189453125	-0.529448486328125	0		3.181431396484375	0.22912875366210939	0		4.2523896484375	0.43803253173828127	0		6.0240830078125	0.41993524169921875	0		-0.15808319091796874	5.93857373046875	0		
0.011435121536254882	-2.2513599693775176E-4	0		0.4605147705078125	-2.32296337890625	0		-0.9057218017578125	0.35226336669921876	0		-0.5355202026367187	-2.81385986328125	0		1.6393211669921874	-0.5115128784179688	0		3.16430322265625	0.21607943725585937	0		4.2283154296875	0.43204803466796876	0		6.01913232421875	0.42881356811523436	0		-0.17522305297851562	5.93049365234375	0		
-0.0026028759479522707	-0.005371933937072754	0		0.441492431640625	-2.329064697265625	0		-0.9107555541992187	0.348033935546875	0		-0.5043844909667968	-2.801379150390625	0		1.6543687744140625	-0.5068795471191406	0		3.15729541015625	0.21490760803222655	0		4.2181982421875	0.41790985107421874	0		6.02306494140625	0.4205814514160156	0		-0.1762729949951172	5.93123876953125	0		
0.01543282985687256	-0.004820927143096924	0		0.4605946044921875	-2.32351708984375	0		-0.9147637329101562	0.3437538757324219	0		-0.5781520385742187	-2.78008642578125	0		1.612493408203125	-0.49582260131835937	0		3.154256103515625	0.20666481018066407	0		4.20922021484375	0.41772515869140625	0		6.01115380859375	0.42844317626953127	0		-0.14127951049804688	5.9346494140625	0		
-0.015477812767028809	-9.10535991191864E-4	0		0.4087531127929688	-2.31443115234375	0		-0.9106796875	0.3473689270019531	0		-0.5659495239257812	-2.766532470703125	0		1.6096282958984376	-0.48712051391601563	0		3.177251953125	0.19917485046386718	0		4.2232197265625	0.41131854248046873	0		6.0192041015625	0.4281091003417969	0		-0.17533445739746092	5.9295830078125	0		
